<svg width="64" height="64" viewBox="0 0 81 80" fill="none" xmlns="http://www.w3.org/2000/svg">
<g id="ion:cart">
<path id="Vector" d="M28.2643 70C31.0258 70 33.2643 67.7614 33.2643 65C33.2643 62.2386 31.0258 60 28.2643 60C25.5029 60 23.2643 62.2386 23.2643 65C23.2643 67.7614 25.5029 70 28.2643 70Z" fill="black"/>
<path id="Vector_2" d="M63.2643 70C66.0258 70 68.2643 67.7614 68.2643 65C68.2643 62.2386 66.0258 60 63.2643 60C60.5029 60 58.2643 62.2386 58.2643 65C58.2643 67.7614 60.5029 70 63.2643 70Z" fill="black"/>
<path id="Vector_3" d="M72.1393 18.8719C71.7881 18.4423 71.3456 18.0963 70.844 17.859C70.3424 17.6217 69.7943 17.499 69.2393 17.5H21.6847L20.7268 12.0656C20.6247 11.4868 20.3219 10.9624 19.8715 10.5846C19.4212 10.2069 18.8521 9.99988 18.2643 10H8.26434C7.6013 10 6.96542 10.2634 6.49658 10.7322C6.02774 11.2011 5.76434 11.837 5.76434 12.5C5.76434 13.163 6.02774 13.7989 6.49658 14.2678C6.96542 14.7366 7.6013 15 8.26434 15H16.1675L23.3018 55.4344C23.404 56.0132 23.7068 56.5376 24.1571 56.9154C24.6075 57.2931 25.1765 57.5001 25.7643 57.5H65.7643C66.4274 57.5 67.0633 57.2366 67.5321 56.7678C68.001 56.2989 68.2643 55.663 68.2643 55C68.2643 54.337 68.001 53.7011 67.5321 53.2322C67.0633 52.7634 66.4274 52.5 65.7643 52.5H27.8612L26.98 47.5H64.7393C65.6063 47.4989 66.4463 47.1983 67.1171 46.649C67.788 46.0998 68.2484 45.3357 68.4206 44.4859L72.9206 21.9859C73.029 21.4414 73.0152 20.8796 72.8801 20.3411C72.745 19.8025 72.492 19.3007 72.1393 18.8719Z" fill="black"/>
</g>
</svg>
